<?xml version="1.0" standalone="no"?><!-- Generator: Gravit.io -->
<svg xmlns="http://www.w3.org/2000/svg"
 xmlns:xlink="http://www.w3.org/1999/xlink" 
style="isolation:isolate" 
viewBox="551 -7 505.097 809.155" 
width="505.097" height="809.155">
<g id="null"><path d=" M 854.058 60.346 
L 854.058 161.366 L 988.751 161.366 
L 988.751 733.809 L 618.346 733.809 
L 618.346 161.366 L 753.039 161.366 
L 753.039 60.346 L 854.058 60.346 Z  
M 921.404 -7 L 685.692 -7 L 685.692 94.019 
L 551 94.019 L 551 801.155 L 1056.097 801.155
L 1056.097 94.019 L 921.404 94.019 L 921.404 -7 Z " 
fill="rgb(0,0,0)"/>
<rect x="748" y="59" width="109" height="102.747" transform="matrix(1,0,0,1,0,0)" fill="rgb(0,0,0)"/
><rect x="587.673" y="503.408" width="437.751" height="151.34" transform="matrix(1,0,0,1,0,0)" fill="rgb(0,0,0)"/><rect x="584.187" y="650.815" width="437.751" height="151.34" transform="matrix(1,0,0,1,0,0)" fill="rgb(0,0,0)"/></g></svg>
