<?xml version="1.0" standalone="no"?><!-- Generator: Gravit.io --><svg xmlns="http://www.w3.org/2000/svg" xmlns:xlink="http://www.w3.org/1999/xlink" style="isolation:isolate" viewBox="0 0 1280 800" width="1280" height="800"><rect x="10.931" y="105.23" width="144.625" height="50" transform="matrix(1,0,0,1,0,0)" fill="rgb(0,0,0)"/><g id="null"><path d=" M 101.029 23.435 L 101.029 56.81 L 145.529 56.81 L 145.529 245.935 L 23.154 245.935 L 23.154 56.81 L 67.654 56.81 L 67.654 23.435 L 101.029 23.435 Z  M 123.279 1.185 L 45.404 1.185 L 45.404 34.56 L 0.904 34.56 L 0.904 268.185 L 167.779 268.185 L 167.779 34.56 L 123.279 34.56 L 123.279 1.185 Z " fill="rgb(0,0,0)"/><rect x="10.842" y="199.185" width="144.625" height="50" transform="matrix(1,0,0,1,0,0)" fill="rgb(0,0,0)"/><rect x="12.029" y="153.215" width="144.625" height="50" transform="matrix(1,0,0,1,0,0)" fill="rgb(0,0,0)"/></g></svg>