<?xml version="1.0" standalone="no"?><!-- Generator: Gravit.io --><svg xmlns="http://www.w3.org/2000/svg" xmlns:xlink="http://www.w3.org/1999/xlink" style="isolation:isolate" viewBox="0 0 1280 800" width="1280" height="800"><g id="null"><path d=" M 109.903 29.028 L 109.903 62.403 L 154.403 62.403 L 154.403 251.528 L 32.028 251.528 L 32.028 62.403 L 76.528 62.403 L 76.528 29.028 L 109.903 29.028 Z  M 132.153 6.778 L 54.278 6.778 L 54.278 40.153 L 9.778 40.153 L 9.778 273.778 L 176.653 273.778 L 176.653 40.153 L 132.153 40.153 L 132.153 6.778 Z " fill="rgb(0,0,0)"/><rect x="19.716" y="204.778" width="144.625" height="50" transform="matrix(1,0,0,1,0,0)" fill="rgb(0,0,0)"/><rect x="20.903" y="158.807" width="144.625" height="50" transform="matrix(1,0,0,1,0,0)" fill="rgb(0,0,0)"/></g><rect x="21.211" y="51.559" width="144.625" height="54.983" transform="matrix(1,0,0,1,0,0)" fill="rgb(0,0,0)"/><rect x="23.565" y="100.613" width="144.625" height="61.736" transform="matrix(1,0,0,1,0,0)" fill="rgb(0,0,0)"/><rect x="73.644" y="14.964" width="39" height="37" transform="matrix(0,1,-1,0,126.608,-59.68)" fill="rgb(0,0,0)"/></svg>